HIERARCHY
ROOT hips
{
  OFFSET 4.514983404067499e-9 10.105397940993303 1.318478203070619
  CHANNELS 6 Xposition Yposition Zposition Yrotation Xrotation Zrotation
  JOINT spine
  {
    OFFSET -3.891297943093837e-9 0.5743022203102706 0
    CHANNELS 3 Yrotation Xrotation Zrotation
    JOINT chest
    {
      OFFSET 0 1.2550312016247926 0
      CHANNELS 3 Yrotation Xrotation Zrotation
      JOINT upperChest
      {
        OFFSET 0 1.2059856050120283 0
        CHANNELS 3 Yrotation Xrotation Zrotation
        JOINT neck
        {
          OFFSET 0 1.5290392449770056 0
          CHANNELS 3 Yrotation Xrotation Zrotation
          JOINT head
          {
            OFFSET 0 0.8186276690878121 0
            CHANNELS 3 Yrotation Xrotation Zrotation
            JOINT leftEye
            {
              OFFSET 0.4540883942785781 -0.2684596961258452 0.6133497327236779
              CHANNELS 3 Yrotation Xrotation Zrotation
              End Site
              {
                OFFSET 0.4540883942785781 -0.2684596961258452 0.6133497327236779
              }
            }
            JOINT rightEye
            {
              OFFSET -0.4540889229417456 -0.26846010916843954 0.6133525398671689
              CHANNELS 3 Yrotation Xrotation Zrotation
              End Site
              {
                OFFSET -0.4540889229417456 -0.26846010916843954 0.6133525398671689
              }
            }
          }
        }
        JOINT leftShoulder
        {
          OFFSET 1.1700010731725468 -0.4176065950681176 0
          CHANNELS 3 Yrotation Xrotation Zrotation
          JOINT leftUpperArm
          {
            OFFSET 1.1803911524554955 0 0
            CHANNELS 3 Yrotation Xrotation Zrotation
            JOINT leftLowerArm
            {
              OFFSET 2.4406171707858904 0 0
              CHANNELS 3 Yrotation Xrotation Zrotation
              JOINT leftHand
              {
                OFFSET 2.3832177068873874 0 0
                CHANNELS 3 Yrotation Xrotation Zrotation
                JOINT leftIndexProximal
                {
                  OFFSET 0.7310175006235151 0.08192774217833776 0.20404791572985242
                  CHANNELS 3 Yrotation Xrotation Zrotation
                  JOINT leftIndexIntermediate
                  {
                    OFFSET 0.3688845439429529 -0.010662034455094949 -0.014226011560394963
                    CHANNELS 3 Yrotation Xrotation Zrotation
                    JOINT leftIndexDistal
                    {
                      OFFSET 0.2271119941018298 -0.007897656478952575 -0.007580683836364496
                      CHANNELS 3 Yrotation Xrotation Zrotation
                      End Site
                      {
                        OFFSET 0.2271119941018298 -0.007897656478952575 -0.007580683836364496
                      }
                    }
                  }
                }
                JOINT leftLittleProximal
                {
                  OFFSET 0.678269929308182 0.08192620621401336 -0.323876516389586
                  CHANNELS 3 Yrotation Xrotation Zrotation
                  JOINT leftLittleIntermediate
                  {
                    OFFSET 0.34904545821382604 -0.0000017106393073174075 8.629360392919949e-9
                    CHANNELS 3 Yrotation Xrotation Zrotation
                    JOINT leftLittleDistal
                    {
                      OFFSET 0.2011060672849896 0.0031247840072243793 0.0038660318003989197
                      CHANNELS 3 Yrotation Xrotation Zrotation
                      End Site
                      {
                        OFFSET 0.2011060672849896 0.0031247840072243793 0.0038660318003989197
                      }
                    }
                  }
                }
                JOINT leftMiddleProximal
                {
                  OFFSET 0.7368181082522638 0.0819260272939426 0.02272335773438093
                  CHANNELS 3 Yrotation Xrotation Zrotation
                  JOINT leftMiddleIntermediate
                  {
                    OFFSET 0.41136739116025356 -0.0000015892429323649537 5.27860346960507e-8
                    CHANNELS 3 Yrotation Xrotation Zrotation
                    JOINT leftMiddleDistal
                    {
                      OFFSET 0.25378150303820757 -0.0000015332469289752737 1.3442958385345705e-8
                      CHANNELS 3 Yrotation Xrotation Zrotation
                      End Site
                      {
                        OFFSET 0.25378150303820757 -0.0000015332469289752737 1.3442958385345705e-8
                      }
                    }
                  }
                }
                JOINT leftRingProximal
                {
                  OFFSET 0.7284256823094712 0.08192611199801392 -0.1508405069143483
                  CHANNELS 3 Yrotation Xrotation Zrotation
                  JOINT leftRingIntermediate
                  {
                    OFFSET 0.381593741461262 -0.0000016975471202052006 6.592486757883709e-8
                    CHANNELS 3 Yrotation Xrotation Zrotation
                    JOINT leftRingDistal
                    {
                      OFFSET 0.22014536669820362 -0.0027420652959939673 -0.005037497035641991
                      CHANNELS 3 Yrotation Xrotation Zrotation
                      End Site
                      {
                        OFFSET 0.22014536669820362 -0.0027420652959939673 -0.005037497035641991
                      }
                    }
                  }
                }
                JOINT leftThumbProximal
                {
                  OFFSET 0.10842212958334652 -0.16573713992498873 -0.07779936144556289
                  CHANNELS 3 Yrotation Xrotation Zrotation
                  JOINT leftThumbIntermediate
                  {
                    OFFSET 0.40720553822379024 -0.01751267955631075 0.31852684427382305
                    CHANNELS 3 Yrotation Xrotation Zrotation
                    JOINT leftThumbDistal
                    {
                      OFFSET 0.23412859218032667 -0.01859690713588802 0.2146635043319005
                      CHANNELS 3 Yrotation Xrotation Zrotation
                      End Site
                      {
                        OFFSET 0.23412859218032667 -0.01859690713588802 0.2146635043319005
                      }
                    }
                  }
                }
              }
            }
          }
        }
        JOINT rightShoulder
        {
          OFFSET -1.1700037144859516 -0.41760703856471126 0
          CHANNELS 3 Yrotation Xrotation Zrotation
          JOINT rightUpperArm
          {
            OFFSET -1.1803910289368023 0 0
            CHANNELS 3 Yrotation Xrotation Zrotation
            JOINT rightLowerArm
            {
              OFFSET -2.440617418222133 0 0
              CHANNELS 3 Yrotation Xrotation Zrotation
              JOINT rightHand
              {
                OFFSET -2.3832181162662343 0 0
                CHANNELS 3 Yrotation Xrotation Zrotation
                JOINT rightIndexProximal
                {
                  OFFSET -0.7310168852843362 0.08192787643494381 0.20404785424302163
                  CHANNELS 3 Yrotation Xrotation Zrotation
                  JOINT rightIndexIntermediate
                  {
                    OFFSET -0.3688846010723953 -0.01066191355993129 -0.014226020535245201
                    CHANNELS 3 Yrotation Xrotation Zrotation
                    JOINT rightIndexDistal
                    {
                      OFFSET -0.22711216276130997 -0.007898902439410271 -0.007580718044857868
                      CHANNELS 3 Yrotation Xrotation Zrotation
                      End Site
                      {
                        OFFSET -0.22711216276130997 -0.007898902439410271 -0.007580718044857868
                      }
                    }
                  }
                }
                JOINT rightLittleProximal
                {
                  OFFSET -0.6782685897119165 0.08192501740206293 -0.3238766118101876
                  CHANNELS 3 Yrotation Xrotation Zrotation
                  JOINT rightLittleIntermediate
                  {
                    OFFSET -0.34904682243945895 -2.664019085329983e-7 3.792712677253007e-8
                    CHANNELS 3 Yrotation Xrotation Zrotation
                    JOINT rightLittleDistal
                    {
                      OFFSET -0.20110609302945537 0.0031260842677420797 0.0038661724369087186
                      CHANNELS 3 Yrotation Xrotation Zrotation
                      End Site
                      {
                        OFFSET -0.20110609302945537 0.0031260842677420797 0.0038661724369087186
                      }
                    }
                  }
                }
                JOINT rightMiddleProximal
                {
                  OFFSET -0.7368168209984411 0.08192485183145659 0.022723294831187846
                  CHANNELS 3 Yrotation Xrotation Zrotation
                  JOINT rightMiddleIntermediate
                  {
                    OFFSET -0.4113687575187084 -9.03141548214137e-8 4.759541079313312e-8
                    CHANNELS 3 Yrotation Xrotation Zrotation
                    JOINT rightMiddleDistal
                    {
                      OFFSET -0.2537822083525749 -9.554208624251714e-8 -1.6364827826187422e-9
                      CHANNELS 3 Yrotation Xrotation Zrotation
                      End Site
                      {
                        OFFSET -0.2537822083525749 -9.554208624251714e-8 -1.6364827826187422e-9
                      }
                    }
                  }
                }
                JOINT rightRingProximal
                {
                  OFFSET -0.7284243957721679 0.08192492753028224 -0.15084062217729294
                  CHANNELS 3 Yrotation Xrotation Zrotation
                  JOINT rightRingIntermediate
                  {
                    OFFSET -0.381595106800805 -2.5662436442530634e-7 2.929475539925619e-8
                    CHANNELS 3 Yrotation Xrotation Zrotation
                    JOINT rightRingDistal
                    {
                      OFFSET -0.22014544912608125 -0.002738002524970362 -0.0050375115645966
                      CHANNELS 3 Yrotation Xrotation Zrotation
                      End Site
                      {
                        OFFSET -0.22014544912608125 -0.002738002524970362 -0.0050375115645966
                      }
                    }
                  }
                }
                JOINT rightThumbProximal
                {
                  OFFSET -0.10842026863657162 -0.16573778435706465 -0.07779917642461898
                  CHANNELS 3 Yrotation Xrotation Zrotation
                  JOINT rightThumbIntermediate
                  {
                    OFFSET -0.40720600760521597 -0.017512298079938038 0.3185267362029824
                    CHANNELS 3 Yrotation Xrotation Zrotation
                    JOINT rightThumbDistal
                    {
                      OFFSET -0.2341289751103648 -0.018594162598156494 0.21466399510514025
                      CHANNELS 3 Yrotation Xrotation Zrotation
                      End Site
                      {
                        OFFSET -0.2341289751103648 -0.018594162598156494 0.21466399510514025
                      }
                    }
                  }
                }
              }
            }
          }
        }
      }
    }
  }
  JOINT leftUpperLeg
  {
    OFFSET -0.8565189721517369 0.4427277044191169 0
    CHANNELS 3 Yrotation Xrotation Zrotation
    JOINT leftLowerLeg
    {
      OFFSET 0 -3.918486704769693 0
      CHANNELS 3 Yrotation Xrotation Zrotation
      JOINT leftFoot
      {
        OFFSET 6.174701361744139e-7 -0.055233446196002234 4.612027801972084
        CHANNELS 3 Yrotation Xrotation Zrotation
        JOINT leftToes
        {
          OFFSET -3.4372540951010944e-7 -0.705284859504459 1.2256624571888697
          CHANNELS 3 Yrotation Xrotation Zrotation
          End Site
          {
            OFFSET -3.4372540951010944e-7 -0.705284859504459 1.2256624571888697
          }
        }
      }
    }
  }
  JOINT rightUpperLeg
  {
    OFFSET 0.8565189732197466 0.44272769569168136 0
    CHANNELS 3 Yrotation Xrotation Zrotation
    JOINT rightLowerLeg
    {
      OFFSET 0 -3.918486692649319 0
      CHANNELS 3 Yrotation Xrotation Zrotation
      JOINT rightFoot
      {
        OFFSET 6.995136552362391e-7 -0.05523244834012664 4.612028499942008
        CHANNELS 3 Yrotation Xrotation Zrotation
        JOINT rightToes
        {
          OFFSET -4.2566694985479714e-7 -0.7052846587611067 1.22566236096697
          CHANNELS 3 Yrotation Xrotation Zrotation
          End Site
          {
            OFFSET -4.2566694985479714e-7 -0.7052846587611067 1.22566236096697
          }
        }
      }
    }
  }
}
MOTION
Frames: 4
Frame Time: 0.03333333333333333
-0.4865958094596863 -0.6346070779561934 -0.205221489071846 28.040370806263347 -13.005416297209317 -0.9267891333783197 5.301880053727216 4.2860767125327826 -3.3998292718510283 19.42867649643456 16.428372582333743 -1.2062030848342133 0 0 0 -15.536884769119606 -19.36737723961106 -11.017656693107508 -21.627565064542935 8.308065932133868 8.611633791372334 0 0 0 0 0 0 -4.129703118960853 4.18149945268032 -10.596585200010916 13.099419797266123 -18.732830947241887 -21.086994822242538 -72.08454402891529 0.3621867732051287 -65.53269738647424 -2.6083102893276706 37.169621085682365 -11.466228202345297 11.589090189468084 7.930719163144555 -41.77778788307883 7.7120540708672465 10.078899870750774 -68.59111605893332 -0.000003517680857257669 -0.000004562042296464549 -8.74576712978861e-7 22.846384281790982 -14.958020950527214 -43.90177806982091 4.649778065017852 9.220836145600874 -69.00440437301565 -0.00000478177760852049 2.489362740169494e-8 0.0000027754250914694238 18.020801100169425 -7.400407937538147 -46.02634859841603 8.28438442439392 10.058417432494027 -55.39225750652935 -0.0000018607960859423308 0.000006048411882641524 -0.000006956479073083026 20.468300252710282 -7.478580094548162 -48.60954305816895 7.474177561214026 10.615322267419955 -65.15710991054559 -0.000007076888664880495 -0.00002091552788391617 5.71040909508827e-7 7.028447061809754 -26.788211004162836 -7.753236040108129 27.819712954975067 7.229236792324364 10.716503516041888 0.0000022055535574170037 -0.000003302745180327109 0.000006466919547181185 26.140322765929362 1.3458155185062 7.515560073015784 12.50802978760127 -29.002761735219803 48.90629700100031 63.68210510132876 0.655437113635361 43.78229222758761 25.298304296413313 29.93365257561623 32.55908291630658 -11.645081422814954 11.823219331479578 48.88123994427022 -7.340643497312684 11.389945354862498 76.07429015928611 0.0000037233301287403593 -0.0000048141189134101246 -0.0000185112638548862 -20.55945477274589 -17.12393364033295 38.3428382369443 -4.6394897712274155 8.510956020914309 65.4522702866041 0.0000054744655745978084 -8.188756842868279e-7 -0.000010097622967155272 -17.571532636311545 -7.982719401904311 44.468716624244024 -8.200434941261824 10.482548172964002 57.55386260722803 -0.000010204842976799773 0.000009050137765251474 0.000007656649739326138 -18.546151123123636 -9.732634165786974 41.98560899706677 -7.499973522794095 10.475964192004701 64.4352774223574 0.0000037356346515810065 0.0000042449761080463185 0.0000028280983338824536 -7.027852551052977 -26.788140229270063 7.7536822165785475 -28.82020802072823 7.643611773676274 -10.706891247512608 -0.0000018821191351933611 0.000010142362837526516 0.0000014067149605123974 -15.923480833956596 -13.341601355193037 -3.7488819969668317 -0.8155382673684982 45.456521810831504 -0.8645084187265623 0.2596149525678401 -14.169297964532626 -0.3676383750445372 -0.03552093118142273 -2.299150445300373 1.3052403838234603 -40.93018410524177 -13.299193297403487 -17.1904269148018 0.20755832933880894 47.31270236248006 0.4481980164886498 -12.244033771219106 -9.980193575662257 11.566836611301177 -0.09700119916489852 -4.624936924263406 1.431471602486177
-0.4582071006298065 -0.8428342355489669 -0.2608742415904999 28.546159298812444 -13.68983460151721 -0.5302461845209797 5.435012016321605 4.544850670472669 -3.35517664744155 19.648845548536602 17.186541327932794 -0.15600548900883468 0 0 0 -16.149542071986698 -19.391824536376358 -11.421471119298324 -22.539328189305426 6.233397025948356 8.493218082841867 0 0 0 0 0 0 -4.451446844239165 4.0522349634603785 -10.784033697232804 15.435764815089803 -16.38190353386352 -24.448645762069606 -64.82744735366293 0.4147241700991499 -62.28780691023852 -4.012587134408731 44.508575476216315 -12.231698097787323 11.347633885169778 7.6275809032507995 -41.67817689529886 7.725651117788222 9.89517123914731 -67.58378846633121 -0.000003517680857257669 -0.000004562042296464549 -8.74576712978861e-7 23.033295875723628 -14.514775543788687 -44.2817262653764 4.622530137927708 9.10892922259175 -68.27558225386527 -0.00000478177760852049 2.489362740169494e-8 0.0000027754250914694238 17.721530905728486 -7.278539819703911 -45.907516974597655 8.220135465819956 9.889503290197057 -54.75491778332813 -0.0000018607960859423308 0.000006048411882641524 -0.000006956479073083026 20.38236473732981 -8.210019385531519 -48.575368100727516 7.520137198021684 10.41440642903564 -64.39338051165603 -0.000007076888664880495 -0.00002091552788391617 5.71040909508827e-7 6.8706433602546895 -26.903238444229306 -7.657115413412825 26.505620509579025 6.924420157487709 10.812207442970902 0.0000022055535574170037 -0.000003302745180327109 0.000006466919547181185 25.221924208892677 0.7656875300919547 10.530452304833323 9.202706602732022 -26.764475196707604 47.170318893420585 61.955537800476904 0.662948097421582 45.51505359325097 22.906961470706072 31.583883854697067 31.044232602576034 -11.884417863189556 11.112283216087414 46.319303334078505 -7.466117102841119 11.026949743385183 74.02063643293282 0.0000037233301287403593 -0.0000048141189134101246 -0.0000185112638548862 -20.57817865327928 -17.108000051386618 38.38740875281275 -4.6480943482706705 8.813954092769812 66.98450812133049 0.0000054744655745978084 -8.188756842868279e-7 -0.000010097622967155272 -17.605899740186143 -7.938748942097941 44.58399979519537 -8.209859831243543 10.4387672814419 57.32889684058168 -0.000010204842976799773 0.000009050137765251474 0.000007656649739326138 -18.515200883656647 -9.186092792478528 41.989435212180965 -7.472266416218091 10.615529872315763 65.16075968040865 0.0000037356346515810065 0.0000042449761080463185 0.0000028280983338824536 -7.027891443394536 -26.78815744478046 7.7536937155616785 -30.978066823341063 8.292696666431485 -10.694575276754147 -0.0000018821191351933611 0.000010142362837526516 0.0000014067149605123974 -16.8400615709181 -14.605872170684716 -5.063047090262363 -0.9443648355487464 49.015474906167526 -0.9927366304620026 1.368632023029606 -20.119224427638567 0.06469940531421722 -9.273338202577316e-7 0.000007522668695258492 -0.000002748642480163255 -41.355623529439164 -14.20922710211092 -18.5469435025937 0.402744288422095 49.86274415501712 0.6085148361431142 -13.002535391890694 -17.1084091834422 11.642052523289548 -0.007983126449298918 -1.0029519079317741 1.7381652336913167
-0.3693413734436035 -1.2133357537984786 -0.4159547984600067 27.58489978861569 -15.910289184159867 0.9464371899956847 5.157047816008522 5.055279477052788 -3.1869064646531737 19.97763113986603 19.574142312831423 1.709063630743383 0 0 0 -17.10459939492948 -17.439976812127384 -11.062746841856109 -23.17912374158109 1.0318284172341408 8.356768118719723 0 0 0 0 0 0 -5.1423404990041215 4.130386652251704 -12.607761195619197 19.445271939234434 -8.940618409757938 -36.20087302312462 -47.883923517553896 0.507521815475343 -45.4373604019186 -6.784566754614703 55.38473512424749 -11.910148469220616 9.25078061839299 2.224284685085807 -33.42178590683297 7.726836339176468 8.042438187620688 -57.55624397292206 -0.000003517680857257669 -0.000004562042296464549 -8.74576712978861e-7 22.495385783927667 -13.306624150851464 -41.259699939988096 4.711825210976226 7.999732983716965 -62.48677652471465 -0.00000478177760852049 2.489362740169494e-8 0.0000027754250914694238 13.675184632795391 -8.465161726711377 -40.66141747016447 7.3468454195151764 7.636423219262194 -44.55440873989905 -0.0000018607960859423308 0.000006048411882641524 -0.000006956479073083026 18.703256922682897 -11.158901834836456 -45.51541551561441 7.653435682741685 8.233381395038492 -55.45502952113737 -0.000007076888664880495 -0.00002091552788391617 5.71040909508827e-7 5.062799965928753 -28.38236170624593 -7.099876659977397 22.64421792648417 6.634333046478706 11.732457639991777 0.0000022055535574170037 -0.000003302745180327109 0.000006466919547181185 21.86668084961669 0.3589898078354046 15.95991199539939 1.8744666546072786 -21.911250184301892 44.03349686608199 50.60738329726019 0.6917851972535296 46.12319524299957 16.148894493199165 34.182460435039054 20.037087476262858 -11.589413736789245 7.930941563928247 41.77763476358924 -7.71122687669351 10.078053527742444 68.5913919852365 0.0000037233301287403593 -0.0000048141189134101246 -0.0000185112638548862 -22.845217584328566 -14.958888763620187 43.900656140814455 -4.650794511325041 9.220674399896923 69.00444061966108 0.0000054744655745978084 -8.188756842868279e-7 -0.000010097622967155272 -18.02041800092116 -7.4007264873430385 46.025691744315985 -8.284431692678783 10.058277829292498 55.393955982874 -0.000010204842976799773 0.000009050137765251474 0.000007656649739326138 -20.469257040717586 -7.477847300336382 48.609444250812395 -7.473664522684161 10.616298619705715 65.1563847060546 0.0000037356346515810065 0.0000042449761080463185 0.0000028280983338824536 -7.027864396832957 -26.78815744478046 7.753668517622502 -27.820614455591343 7.228914061813061 -10.717263469446463 -0.0000018821191351933611 0.000010142362837526516 0.0000014067149605123974 -15.034305508753471 -17.661550629673812 -8.576952177915423 -1.1750106969122245 57.163891018922264 -1.2454916714929751 2.3695969277720366 -25.103143942122568 1.6392517128073967 0.0000016815967143016897 -0.0000012020336972081192 8.495756702941862e-7 -36.927300962782695 -16.51097666757459 -22.08262875331189 0.7884469683431435 56.226204440229964 0.940015161740915 -15.82300708879804 -24.332793820336484 13.677476403551786 0.000003037755613152537 -0.00009877078888393247 0.00016919187897711317
-0.33668842911720276 -1.2399499429464278 -0.4538975656032562 26.418862544037157 -16.556153091741233 1.4951847414487567 4.83711858537809 5.120276369760005 -3.111277671452966 19.72133917314285 19.98192484043787 1.6212818586470563 0 0 0 -17.197320765613036 -16.124652600092727 -10.503626680088932 -22.61945329730714 0.08691270975612543 8.212417249430043 0 0 0 0 0 0 -5.114790079232378 4.306361315993608 -13.363861946577437 19.4841571728901 -6.549356104272499 -40.63830769190018 -43.968933839104444 0.48614886964362936 -37.95188373748831 -6.9631153960189165 54.29809369150779 -10.539495213192156 7.749477549573717 -0.22131803612631817 -28.252320727220155 7.580571471320745 6.746218289585879 -50.462142482358644 -0.000003517680857257669 -0.000004562042296464549 -8.74576712978861e-7 22.065387711235406 -13.335973425888431 -38.45811670019387 4.749549380711127 7.1774333144828555 -58.47937444801174 -0.00000478177760852049 2.489362740169494e-8 0.0000027754250914694238 11.49355846774169 -9.04784061028868 -37.39675419988579 6.8310889968903075 6.518084171586258 -39.232375105718134 -0.0000018607960859423308 0.000006048411882641524 -0.000006956479073083026 17.40162700704684 -12.26614361960652 -42.765765543420216 7.592238014579786 7.206596299619941 -51.33184934644115 -0.000007076888664880495 -0.00002091552788391617 5.71040909508827e-7 4.217035314696449 -29.190908793406834 -7.09430384427967 21.795396598635808 6.71538003099959 12.1648278701159 0.0000022055535574170037 -0.000003302745180327109 0.000006466919547181185 20.341899912307902 0.5535251661928513 16.83514981174642 0.11604239572817772 -20.560524845953037 44.375275241339565 45.995032351961726 0.701318551314665 44.81642696247214 15.639659531306851 33.55810036079096 16.561862326166317 -11.44582514769516 7.122235800888295 41.70786888365176 -7.747603382987405 9.91474114842929 67.3048238989088 0.0000037233301287403593 -0.0000048141189134101246 -0.0000185112638548862 -23.54057672700324 -14.222463807658531 45.16788428701351 -4.675152265846285 9.223736336499721 68.83977662706792 0.0000054744655745978084 -8.188756842868279e-7 -0.000010097622967155272 -18.02102655017669 -7.15313512325013 46.57065825436517 -8.292884989646005 9.869149745578646 54.2863074927204 -0.000010204842976799773 0.000009050137765251474 0.000007656649739326138 -20.846819595053564 -7.1369813604577015 50.11751303850869 -7.510680034405747 10.549691427725296 64.66526128576695 0.0000037356346515810065 0.0000042449761080463185 0.0000028280983338824536 -6.9396845619456675 -26.898524353747916 7.768637875998106 -27.880931133396473 7.286932674352285 -10.800246941951242 -0.0000018821191351933611 0.000010142362837526516 0.0000014067149605123974 -13.718953310269145 -17.37653682234256 -9.434955149525178 -1.2960955479442844 57.56932463411723 -1.3567004508232385 2.646661002272709 -25.201886628442324 1.9305597349339845 -8.397315227773698e-7 -0.000004419505000526075 2.104511807046791e-9 -34.80189137117074 -16.6466589433598 -22.823630999670808 0.8537037850375343 57.016907089328974 0.9980897488646975 -16.402435164370644 -24.201221407334426 14.094421375263623 0.000008069983023065652 -0.00010749550328618768 0.00019305568354742244
